<svg width="493" height="493" viewBox="0 0 493 493" fill="none" xmlns="http://www.w3.org/2000/svg">
<g clip-path="url(#clip0_794_56)">
<path d="M110.974 379.754C93.171 379.754 79.0272 377.973 68.543 374.413C58.0588 371.05 50.4429 365.511 45.6953 357.796C40.9477 350.082 38.574 339.696 38.574 326.64V286.88C38.574 278.967 36.2991 272.142 31.7493 266.406C27.3974 260.669 20.9684 257.801 12.4624 257.801H0V235.25H12.4624C20.9684 235.25 27.3974 232.381 31.7493 226.645C36.2991 220.908 38.574 214.084 38.574 206.171V166.113C38.574 153.058 40.9477 142.771 45.6953 135.254C50.4429 127.539 58.0588 122.001 68.543 118.638C79.0272 115.077 93.171 113.198 110.974 113V138.221C97.9185 138.221 88.2256 138.914 81.8955 140.299C75.7632 141.683 71.4113 144.354 68.8397 148.31C66.4659 152.266 65.279 158.3 65.279 166.41V197.566C65.279 213.391 61.8173 225.458 54.8937 233.766C47.9702 242.074 36.0024 246.723 18.9903 247.712V245.338C35.8046 246.327 47.6735 250.976 54.597 259.284C61.7183 267.593 65.279 279.56 65.279 295.188V326.344C65.279 334.454 66.4659 340.487 68.8397 344.444C71.4113 348.4 75.7632 351.071 81.8955 352.455C88.2256 353.84 97.9185 354.532 110.974 354.532V379.754Z" fill="#96C1FE"/>
<path d="M381.97 354.532C395.026 354.532 404.62 353.84 410.752 352.455C417.083 351.071 421.434 348.4 423.808 344.444C426.38 340.487 427.666 334.454 427.666 326.344V295.188C427.666 279.56 431.127 267.593 438.051 259.284C445.172 250.976 457.14 246.327 473.954 245.338V247.712C456.942 246.723 444.975 242.074 438.051 233.766C431.127 225.458 427.666 213.391 427.666 197.566V166.41C427.666 158.3 426.38 152.266 423.808 148.31C421.434 144.354 417.083 141.683 410.752 140.299C404.62 138.914 395.026 138.221 381.97 138.221V113C399.774 113.198 413.917 115.077 424.402 118.638C434.886 122.001 442.502 127.539 447.249 135.254C451.997 142.771 454.371 153.058 454.371 166.113V206.171C454.371 214.084 456.547 220.908 460.899 226.645C465.448 232.381 471.976 235.25 480.482 235.25H492.945V257.801H480.482C471.976 257.801 465.448 260.669 460.899 266.406C456.547 272.142 454.371 278.967 454.371 286.88V326.64C454.371 339.696 451.997 350.082 447.249 357.796C442.502 365.511 434.886 371.05 424.402 374.413C413.917 377.973 399.774 379.754 381.97 379.754V354.532Z" fill="#96C1FE"/>
<path d="M356.308 191.473C356.471 193.835 356.471 196.197 356.471 198.581C356.471 271.223 301.171 355 200.052 355V354.956C170.182 355 140.931 346.444 115.785 330.311C120.129 330.833 124.494 331.095 128.87 331.106C153.624 331.127 177.671 322.821 197.146 307.527C173.622 307.081 152.993 291.742 145.787 269.35C154.027 270.94 162.518 270.613 170.606 268.403C144.959 263.222 126.508 240.688 126.508 214.518V213.822C134.15 218.078 142.706 220.44 151.458 220.701C127.302 204.558 119.856 172.423 134.443 147.298C162.355 181.643 203.536 202.522 247.743 204.732C243.313 185.638 249.365 165.63 263.647 152.208C285.789 131.394 320.613 132.461 341.427 154.592C353.739 152.164 365.539 147.647 376.338 141.246C372.234 153.971 363.645 164.781 352.171 171.65C363.068 170.365 373.714 167.448 383.74 162.996C376.359 174.056 367.063 183.69 356.308 191.473Z" fill="#96C1FE"/>
</g>
<defs>
<clipPath id="clip0_794_56">
<rect width="492.94" height="492.94" fill="white"/>
</clipPath>
</defs>
</svg>
