<svg width="630" height="630" viewBox="0 0 630 630" fill="none" xmlns="http://www.w3.org/2000/svg">
<path d="M179.974 448.754C162.171 448.754 148.027 446.973 137.543 443.413C127.059 440.05 119.443 434.511 114.695 426.796C109.948 419.082 107.574 408.696 107.574 395.64V355.88C107.574 347.967 105.299 341.142 100.749 335.406C96.3974 329.669 89.9684 326.801 81.4624 326.801H69V304.25H81.4624C89.9684 304.25 96.3974 301.381 100.749 295.645C105.299 289.908 107.574 283.084 107.574 275.171V235.113C107.574 222.058 109.948 211.771 114.695 204.254C119.443 196.539 127.059 191.001 137.543 187.638C148.027 184.077 162.171 182.198 179.974 182V207.221C166.919 207.221 157.226 207.914 150.896 209.299C144.763 210.683 140.411 213.354 137.84 217.31C135.466 221.266 134.279 227.3 134.279 235.41V266.566C134.279 282.391 130.817 294.458 123.894 302.766C116.97 311.074 105.002 315.723 87.9903 316.712V314.338C104.805 315.327 116.673 319.976 123.597 328.284C130.718 336.593 134.279 348.56 134.279 364.188V395.344C134.279 403.454 135.466 409.487 137.84 413.444C140.411 417.4 144.763 420.071 150.896 421.455C157.226 422.84 166.919 423.532 179.974 423.532V448.754Z" fill="#96C1FE"/>
<path d="M450.97 423.532C464.026 423.532 473.62 422.84 479.752 421.455C486.083 420.071 490.434 417.4 492.808 413.444C495.38 409.487 496.666 403.454 496.666 395.344V364.188C496.666 348.56 500.127 336.593 507.051 328.284C514.172 319.976 526.14 315.327 542.954 314.338V316.712C525.942 315.723 513.975 311.074 507.051 302.766C500.127 294.458 496.666 282.391 496.666 266.566V235.41C496.666 227.3 495.38 221.266 492.808 217.31C490.434 213.354 486.083 210.683 479.752 209.299C473.62 207.914 464.026 207.221 450.97 207.221V182C468.774 182.198 482.917 184.077 493.402 187.638C503.886 191.001 511.502 196.539 516.249 204.254C520.997 211.771 523.371 222.058 523.371 235.113V275.171C523.371 283.084 525.547 289.908 529.899 295.645C534.448 301.381 540.976 304.25 549.482 304.25H561.945V326.801H549.482C540.976 326.801 534.448 329.669 529.899 335.406C525.547 341.142 523.371 347.967 523.371 355.88V395.64C523.371 408.696 520.997 419.082 516.249 426.796C511.502 434.511 503.886 440.05 493.402 443.413C482.917 446.973 468.774 448.754 450.97 448.754V423.532Z" fill="#96C1FE"/>
<path d="M425.308 260.473C425.471 262.835 425.471 265.197 425.471 267.581C425.471 340.223 370.171 424 269.052 424V423.956C239.182 424 209.931 415.444 184.785 399.311C189.129 399.833 193.494 400.095 197.87 400.106C222.624 400.127 246.671 391.821 266.146 376.527C242.622 376.081 221.993 360.742 214.787 338.35C223.027 339.94 231.518 339.613 239.606 337.403C213.959 332.222 195.508 309.688 195.508 283.518V282.822C203.15 287.078 211.706 289.44 220.458 289.701C196.302 273.558 188.856 241.423 203.443 216.298C231.355 250.643 272.536 271.522 316.743 273.732C312.313 254.638 318.365 234.63 332.647 221.208C354.789 200.394 389.613 201.461 410.427 223.592C422.739 221.164 434.539 216.647 445.338 210.246C441.234 222.971 432.645 233.781 421.171 240.65C432.068 239.365 442.714 236.448 452.74 231.996C445.359 243.056 436.063 252.69 425.308 260.473Z" fill="#96C1FE"/>
</svg>
